<?xml version="1.0" encoding="iso-8859-1"?>
<!-- Generator: Adobe Illustrator 19.0.0, SVG Export Plug-In . SVG Version: 6.00 Build 0)  -->
<svg version="1.1" id="Capa_1" xmlns="http://www.w3.org/2000/svg" xmlns:xlink="http://www.w3.org/1999/xlink" x="0px" y="0px"
	 viewBox="0 0 488.858 488.858" style="enable-background:new 0 0 488.858 488.858;" xml:space="preserve">
<g>
	<g>
		<path d="M63.023,18.002c17,10.3,37.7,14.8,58.8,16c50.7,2.9,101.3,7.3,152.3,4c6.3,0.4,12.6,0.8,18.9,1.1c40,1.7,80,2.2,119.8-1.9
			c11.3-1.2,20.7-5.8,19.9-14.8c-0.8-8.3-8.8-14.4-20.4-15.3c-20.9-1.8-41.9-3.7-62.9-3.5c-33.7,0.4-67.3,2.4-101,3.7
			c-60.3-11.5-122-4.9-183.1-7.3c-2.7-0.1-7,3.4-8.3,5.8C54.323,10.702,57.823,14.902,63.023,18.002z"/>
		<path d="M330.723,235.402c7.4,5.8,16.2,8,22.1,1.1c5.4-6.3,5-15.3-1.1-22.8c-11-13.4-21.9-27-34.3-39.1
			c-19.9-19.4-41-37.6-61.6-56.4c-0.6-1-1.2-1.9-1.8-2.9v-0.1c-3.1-4.8-9.6-6.2-14.4-3.1l-4.8,3.1c-41.9,27.1-72.7,66.8-109.2,100
			c-1.7,1.5-1.7,6.5-0.7,9c1.9,5,6.8,5.9,12.1,5.1c17.2-2.7,32.5-11.6,45.7-23c15.8-13.7,31.7-27.2,47.2-41.3
			c-1.2,14.4-2.1,28.8-2,43.2c0.4,32.2,2.4,64.4,3.7,96.6c-11.5,57.7-4.9,116.8-7.3,175.2c-0.1,2.6,3.4,6.7,5.8,8
			c4.9,2.5,9-0.8,12.1-5.7c10.3-16.3,14.8-36.1,16-56.2c2.9-48.5,7.3-97,4-145.7c0.4-6,0.8-12.1,1.1-18.1c1.3-30.4,1.9-60.9,0-91.2
			C284.323,194.102,306.123,216.202,330.723,235.402z"/>
	</g>
</g>
<g>
</g>
<g>
</g>
<g>
</g>
<g>
</g>
<g>
</g>
<g>
</g>
<g>
</g>
<g>
</g>
<g>
</g>
<g>
</g>
<g>
</g>
<g>
</g>
<g>
</g>
<g>
</g>
<g>
</g>
</svg>
