<svg id="Celo_Rings" data-name="Celo Rings" xmlns="http://www.w3.org/2000/svg" viewBox="0 0 950 950"><defs><style>.cls-1{fill:#fff;}</style></defs><title>Artboard 1</title><path id="Bottom_Ring" data-name="Bottom Ring" class="cls-1" d="M375,855c154.64,0,280-125.36,280-280S529.64,295,375,295,95,420.36,95,575,220.36,855,375,855Zm0,95C167.9,950,0,782.1,0,575S167.9,200,375,200,750,367.9,750,575,582.1,950,375,950Z"/><path id="Top_Ring" data-name="Top Ring" class="cls-1" d="M575,655c154.64,0,280-125.36,280-280S729.64,95,575,95,295,220.36,295,375,420.36,655,575,655Zm0,95c-207.1,0-375-167.9-375-375S367.9,0,575,0,950,167.9,950,375,782.1,750,575,750Z"/></svg>