<?xml version="1.0" standalone="no"?>
<!DOCTYPE svg PUBLIC "-//W3C//DTD SVG 20010904//EN"
 "http://www.w3.org/TR/2001/REC-SVG-20010904/DTD/svg10.dtd">
<svg version="1.0" xmlns="http://www.w3.org/2000/svg"
 width="870.000000pt" height="870.000000pt" viewBox="0 0 870.000000 870.000000"
 preserveAspectRatio="xMidYMid meet">
<metadata>
Created by potrace 1.11, written by Peter Selinger 2001-2013
</metadata>
<g transform="translate(0.000000,870.000000) scale(0.100000,-0.100000)"
fill="#000000" stroke="none">
<path d="M1730 8521 c0 -3 66 -89 146 -191 80 -102 163 -207 184 -235 37 -49
362 -462 440 -560 120 -151 296 -376 323 -412 17 -24 33 -44 36 -44 3 -1 290
-3 636 -4 654 -3 715 -5 855 -30 97 -18 289 -72 304 -87 6 -4 16 -8 24 -8 8 0
66 -26 130 -57 198 -96 381 -230 526 -383 62 -67 243 -292 331 -411 11 -15
234 -303 495 -639 261 -337 496 -641 523 -677 26 -35 53 -66 60 -68 6 -3 449
-4 984 -3 l972 3 -70 90 c-38 50 -82 105 -97 124 -15 19 -58 76 -97 126 -38
50 -113 147 -165 214 -52 68 -139 180 -193 249 -54 70 -109 141 -122 157 -13
17 -195 253 -406 525 -210 272 -412 533 -448 580 -36 47 -177 229 -313 405
-137 176 -299 385 -360 465 -258 333 -356 432 -576 579 -216 145 -469 238
-782 287 -54 8 -3340 13 -3340 5z"/>
<path d="M890 7070 c0 -4 165 -216 389 -500 36 -47 82 -105 101 -130 19 -25
37 -47 40 -50 3 -3 21 -25 40 -50 19 -25 40 -52 47 -60 57 -71 501 -639 506
-647 4 -6 -327 -10 -973 -10 -539 0 -982 -2 -985 -4 -4 -4 79 -115 158 -213
18 -21 41 -51 52 -67 11 -15 124 -159 250 -321 127 -161 242 -308 257 -328 30
-41 302 -388 321 -410 7 -8 56 -71 109 -140 53 -69 105 -136 117 -149 12 -13
21 -27 21 -30 0 -3 13 -20 28 -37 30 -35 91 -113 516 -659 163 -209 302 -387
309 -395 7 -8 41 -53 77 -100 36 -47 67 -87 71 -90 3 -3 71 -90 152 -195 82
-104 158 -203 171 -220 13 -16 54 -68 90 -115 37 -47 77 -98 90 -115 13 -16
91 -116 172 -220 140 -179 171 -219 284 -364 25 -32 161 -206 302 -387 141
-181 311 -399 378 -484 66 -85 130 -167 142 -182 13 -15 68 -86 123 -158 l100
-129 843 -1 c463 0 842 3 842 8 0 4 -80 108 -176 232 -97 124 -208 267 -247
318 -40 52 -125 162 -190 245 -64 84 -152 197 -194 252 -43 55 -80 102 -83
105 -3 3 -25 32 -50 65 -25 33 -50 66 -57 75 -14 18 -176 225 -251 322 -29 37
-52 69 -52 71 0 1 510 2 1133 2 622 -1 1137 1 1144 3 14 4 2 22 -140 202 -94
121 -517 667 -813 1052 -79 102 -144 188 -144 191 0 2 439 4 975 3 536 -1 975
0 975 2 0 3 -43 62 -67 92 -7 8 -56 71 -109 140 -53 69 -107 139 -120 155 -13
17 -67 86 -120 155 -53 69 -107 139 -120 155 -13 17 -136 176 -275 355 -138
179 -265 342 -281 363 l-31 37 -977 0 -977 0 -44 56 c-24 31 -51 64 -60 73 -8
9 -30 36 -49 61 -19 25 -59 74 -90 110 -31 36 -150 180 -265 320 -115 140
-212 257 -215 260 -3 3 -43 52 -90 110 -46 58 -109 135 -140 171 -30 36 -62
75 -70 85 -8 10 -99 120 -200 244 -154 186 -295 361 -357 440 -6 8 -56 71
-110 140 -54 69 -114 145 -133 170 -19 25 -40 52 -47 60 -7 8 -21 26 -31 40
l-20 25 -986 0 c-542 0 -986 -2 -986 -5z"/>
</g>
</svg>
